<?xml version="1.0" encoding="UTF-8" standalone="no"?>
<svg
   version="1.1"
   id="Layer_1"
   x="0px"
   y="0px"
   width="16"
   height="16"
   viewBox="0 32.25 16 16"
   enable-background="new 0 32.25 152 55.5"
   xml:space="preserve"
   sodipodi:docname="groq-icon-dark.svg"
   inkscape:version="1.4 (e7c3feb100, 2024-10-09)"
   xmlns:inkscape="http://www.inkscape.org/namespaces/inkscape"
   xmlns:sodipodi="http://sodipodi.sourceforge.net/DTD/sodipodi-0.dtd"
   xmlns="http://www.w3.org/2000/svg"
   xmlns:svg="http://www.w3.org/2000/svg"
   xmlns:rdf="http://www.w3.org/1999/02/22-rdf-syntax-ns#"
   xmlns:cc="http://creativecommons.org/ns#"
   xmlns:dc="http://purl.org/dc/elements/1.1/"><defs
   id="defs5" /><sodipodi:namedview
   id="namedview5"
   pagecolor="#ffffff"
   bordercolor="#000000"
   borderopacity="0.25"
   inkscape:showpageshadow="2"
   inkscape:pageopacity="0.0"
   inkscape:pagecheckerboard="0"
   inkscape:deskcolor="#d1d1d1"
   inkscape:zoom="45.254834"
   inkscape:cx="5.5684659"
   inkscape:cy="6.8611455"
   inkscape:window-width="3440"
   inkscape:window-height="1412"
   inkscape:window-x="0"
   inkscape:window-y="0"
   inkscape:window-maximized="1"
   inkscape:current-layer="Layer_1-2" />
 <title
   id="title1">
  groq_logo
 </title>
 <g
   id="Layer_2">
  <g
   id="Layer_1-2">
   
   
   
   
   
   
  <path
   d="m 8.0008972,32.25 c -3.0206061,0 -5.4777194,2.457114 -5.4777194,5.477411 0,3.020298 2.4571133,5.477721 5.4777194,5.477721 h 1.801451 v -2.054223 h -1.801451 c -1.8877635,0 -3.4234973,-1.535734 -3.4234973,-3.423498 0,-1.887764 1.5357338,-3.423497 3.4234973,-3.423497 1.887763,0 3.4315128,1.535733 3.4315128,3.423497 v 0 5.044619 0 c 0,1.875434 -1.5271038,3.402845 -3.3979128,3.422574 C 7.1393199,46.187263 6.2832921,45.82747 5.6519816,45.19277 l -1.4525051,1.452505 c 1.0067663,1.012006 2.3708016,1.587829 3.7980307,1.603243 v 9.24e-4 c 0.01236,0 0.02466,0 0.03669,0 h 0.03853 v -9.24e-4 c 2.9774488,-0.04038 5.3883228,-2.467595 5.4021948,-5.451827 l 0.0019,-5.203679 C 13.405304,34.634981 10.976248,32.25 8.0009562,32.25 Z"
   id="path3"
   style="fill:#9ba3b4;stroke-width:0.308257;fill-opacity:1">
   </path></g>
 </g>
<metadata
   id="metadata5"><rdf:RDF><cc:Work
       rdf:about=""><dc:title>
  groq_logo
 </dc:title></cc:Work></rdf:RDF></metadata></svg>
